<svg xmlns="http://www.w3.org/2000/svg" viewBox="0 0 1699 635" width="1699" height="635">
  <g fill="#0b1326">
    <path d="M205.80 127.20L205.80 127.20L205.80 402Q205.80 416.40 208.20 423.90Q210.60 431.40 218.10 433.80Q225.60 436.20 240 436.20L240 436.20L260.40 436.20Q307.20 436.20 341.40 411Q375.60 385.80 387 343.80L387 343.80Q387.60 342 390.60 342.60Q393.60 343.20 393.60 345L393.60 345Q391.80 364.80 390 392.70Q388.20 420.60 388.20 444L388.20 444Q388.20 453 379.20 453L379.20 453L96 453Q94.80 453 94.80 449.40Q94.80 445.80 96 445.80L96 445.80Q114.60 445.80 123.60 442.80Q132.60 439.80 135.90 430.80Q139.20 421.80 139.20 404.40L139.20 404.40L139.20 126.60Q139.20 109.20 135.90 100.50Q132.60 91.80 123.60 88.50Q114.60 85.20 96 85.20L96 85.20Q94.80 85.20 94.80 81.60Q94.80 78 96 78L96 78Q110.40 78 130.50 78.90Q150.60 79.80 172.20 79.80L172.20 79.80Q195 79.80 214.20 78.90Q233.40 78 248.40 78L248.40 78Q250.20 78 250.20 81.60Q250.20 85.20 248.40 85.20L248.40 85.20Q230.40 85.20 221.10 88.50Q211.80 91.80 208.80 100.80Q205.80 109.80 205.80 127.20Z"></path>
    <path d="M955.20 460.20L955.20 460.20Q922.20 460.20 903.30 439.20Q884.40 418.20 884.40 385.20L884.40 385.20L884.40 297Q884.40 277.20 879.90 267.60Q875.40 258 865.80 258L865.80 258Q859.20 258 850.80 262.20L850.80 262.20Q848.40 262.80 847.20 259.20L847.20 259.20Q846 256.20 846.60 255.60L846.60 255.60Q846.60 255 847.20 255L847.20 255L927.60 216.60Q929.40 216 930.60 216L930.60 216Q933.60 216 936.90 218.70Q940.20 221.40 940.20 223.80L940.20 223.80L940.20 356.40Q940.20 388.80 952.50 405Q964.80 421.20 990 421.20L990 421.20Q1007.40 421.20 1024.80 411L1024.80 411Q1033.80 406.20 1041 399.60L1041 399.60L1041 297Q1041 277.20 1036.50 267.60Q1032 258 1022.40 258L1022.40 258Q1015.80 258 1006.80 262.20L1006.80 262.20Q1005 262.80 1003.80 259.20L1003.80 259.20Q1002.60 256.20 1003.20 255.60L1003.20 255.60Q1003.20 255 1003.80 255L1003.80 255L1084.20 216.60Q1085.40 216 1087.20 216L1087.20 216Q1090.20 216 1093.50 218.70Q1096.80 221.40 1096.80 223.80L1096.80 223.80L1096.80 383.40Q1096.80 403.80 1100.70 412.20Q1104.60 420.60 1113.60 420.60L1113.60 420.60Q1117.80 420.60 1124.10 418.80Q1130.40 417 1138.20 414L1138.20 414Q1140.60 412.80 1142.40 416.10Q1144.20 419.40 1142.40 420.60L1142.40 420.60L1059.60 460.80Q1058.40 461.40 1056.60 461.40L1056.60 461.40Q1050.60 461.40 1045.80 446.40L1045.80 446.40Q1041.60 433.80 1041 412.80L1041 412.80Q1026.60 429.60 1010.40 441.60L1010.40 441.60Q985.20 460.20 955.20 460.20ZM1131.60 618L1131.60 618Q1129.80 618 1129.80 614.40Q1129.80 610.80 1131.60 610.80L1131.60 610.80Q1152.60 610.80 1158.90 603Q1165.20 595.20 1165.20 569.40L1165.20 569.40L1165.20 291.60Q1165.20 273 1161 264.30Q1156.80 255.60 1146 255.60L1146 255.60Q1141.20 255.60 1134 257.70Q1126.80 259.80 1118.40 264L1118.40 264Q1116 265.20 1114.20 261.60Q1112.40 258 1113.60 257.40L1113.60 257.40L1198.80 216Q1200 215.40 1201.80 215.40L1201.80 215.40Q1208.40 215.40 1215 229.80L1215 229.80Q1218.60 238.80 1220.40 253.20L1220.40 253.20Q1236.60 238.20 1252.80 229.20L1252.80 229.20Q1280.40 213.60 1309.80 213.60L1309.80 213.60Q1335 213.60 1356.60 226.50Q1378.20 239.40 1391.70 264Q1405.20 288.60 1405.20 324L1405.20 324Q1405.20 362.40 1392.90 388.80Q1380.60 415.20 1360.80 431.10Q1341 447 1317.90 453.90Q1294.80 460.80 1272.60 460.80L1272.60 460.80Q1249.20 460.80 1233 457.20L1233 457.20Q1227 456 1221 454.20L1221 454.20L1221 569.40Q1221 586.20 1224.90 595.20Q1228.80 604.20 1240.20 607.50Q1251.60 610.80 1274.40 610.80L1274.40 610.80Q1276.20 610.80 1276.20 614.40Q1276.20 618 1274.40 618L1274.40 618Q1257.60 618 1236.60 617.40Q1215.60 616.80 1192.20 616.80L1192.20 616.80Q1175.40 616.80 1159.50 617.40Q1143.60 618 1131.60 618ZM1221 267L1221 267Q1221 268.80 1221 271.20L1221 271.20L1221 415.80Q1231.20 426.60 1243.20 435L1243.20 435Q1258.20 445.80 1284 445.80L1284 445.80Q1312.20 445.80 1328.40 421.20Q1344.60 396.60 1344.60 342.60L1344.60 342.60Q1344.60 294.60 1322.40 270.90Q1300.20 247.20 1270.20 247.20L1270.20 247.20Q1248 247.20 1231.80 258.60L1231.80 258.60Q1226.40 262.20 1221 267ZM1537.80 460.20L1537.80 460.20Q1498.80 460.20 1471.50 444Q1444.20 427.80 1430.10 401.10Q1416 374.40 1416 343.80L1416 343.80Q1416 308.40 1433.40 279.60Q1450.80 250.80 1481.40 233.40Q1512 216 1551.60 216L1551.60 216Q1587 216 1608.30 232.20Q1629.60 248.40 1629.60 285L1629.60 285Q1629.60 292.80 1628.40 298.20Q1627.20 303.60 1623 303.60L1623 303.60L1586.40 303.60L1477.20 304.20Q1476.60 310.80 1476.60 318L1476.60 318Q1476.60 352.80 1487.40 378Q1498.20 403.20 1519.20 417Q1540.20 430.80 1570.80 430.80L1570.80 430.80Q1588.80 430.80 1601.10 426.30Q1613.40 421.80 1628.40 414L1628.40 414Q1628.40 414 1629 413.40L1629 413.40Q1630.20 413.40 1632 415.20L1632 415.20Q1633.80 417.60 1632.60 419.40L1632.60 419.40Q1610.40 441.60 1587.30 450.90Q1564.20 460.20 1537.80 460.20ZM1478.40 292.20L1565.40 291Q1564.80 265.20 1558.80 248.40L1558.80 248.40Q1551 228 1528.80 228L1528.80 228Q1504.80 228 1491 252.60L1491 252.60Q1481.40 268.80 1478.40 292.20L1478.40 292.20Z"></path>
  </g>
  <g fill="none" stroke="#0b1326" stroke-linecap="round">
    <circle cx="614.65" cy="276.25" r="173.19" stroke-width="47.86"></circle>
    <line x1="737.71" y1="399.31" x2="851.65" y2="513.25" stroke-width="47.86"></line>
    <path d="M 523.5 312.71 A 109.38 109.38 0 0 1 587.31 194.21" stroke-width="29.67"></path>
  </g>
</svg>